# xmcd CD database file
#
# Track frame offsets:
#	150
#	19682
#	41735
#	62780
#	77165
#	107330
#	131055
#	153650
#	177292
#	199040
#
# Disc length: 2867 seconds
#
# Revision: 0
# Processed by: cddbd v1.5.1PL2 Copyright (c) Steve Scherf et al.
# Submitted via: CDex 1.51
#
DISCID=810b310a
DTITLE=The Street Sliders - THE LIVE ! 〜HEAVEN AND HELL〜
DYEAR=1987
DGENRE=ロック (日本)
TTITLE0=TOKYO JUNK
TTITLE1=カメレオン
TTITLE2=あんたがいないよる
TTITLE3=天国列車
TTITLE4=Dancin' Doll
TTITLE5=Let's go down the street
TTITLE6=Boys Jump The Midnight
TTITLE7=Angel Duster
TTITLE8=So Heavy
TTITLE9=Blow The Night!
EXTD=YEAR: 1987
EXTT0=
EXTT1=
EXTT2=
EXTT3=
EXTT4=
EXTT5=
EXTT6=
EXTT7=
EXTT8=
EXTT9=
PLAYORDER=
